# UltraIa geometry — procedural mesh (deterministic)
o ultraia_mobius
v 0.700000 0.000000 0.000000
v 0.750000 0.000000 0.000000
v 0.800000 0.000000 0.000000
v 0.850000 0.000000 0.000000
v 0.900000 0.000000 0.000000
v 0.950000 0.000000 0.000000
v 1.000000 0.000000 0.000000
v 1.050000 0.000000 0.000000
v 1.100000 0.000000 0.000000
v 1.150000 0.000000 0.000000
v 1.200000 0.000000 0.000000
v 1.250000 0.000000 0.000000
v 1.300000 0.000000 0.000000
v 0.687967 -0.029405 0.136845
v 0.736770 -0.024504 0.146553
v 0.785573 -0.019603 0.156260
v 0.834376 -0.014703 0.165968
v 0.883179 -0.009802 0.175675
v 0.931982 -0.004901 0.185383
v 0.980785 0.000000 0.195090
v 1.029588 0.004901 0.204798
v 1.078392 0.009802 0.214505
v 1.127195 0.014703 0.224213
v 1.175998 0.019603 0.233921
v 1.224801 0.024504 0.243628
v 1.273604 0.029405 0.253336
v 0.652041 -0.058527 0.270084
v 0.697348 -0.048773 0.288851
v 0.742654 -0.039018 0.307617
v 0.787960 -0.029264 0.326384
v 0.833267 -0.019509 0.345150
v 0.878573 -0.009755 0.363917
v 0.923880 0.000000 0.382683
v 0.969186 0.009755 0.401450
v 1.014492 0.019509 0.420216
v 1.059799 0.029264 0.438983
v 1.105105 0.039018 0.457749
v 1.150411 0.048773 0.476516
v 1.195718 0.058527 0.495283
v 0.592770 -0.087085 0.396076
v 0.632553 -0.072571 0.422658
v 0.672336 -0.058057 0.449241
v 0.712120 -0.043543 0.475823
v 0.751903 -0.029028 0.502405
v 0.791686 -0.014514 0.528988
v 0.831470 0.000000 0.555570
v 0.871253 0.014514 0.582153
v 0.911036 0.029028 0.608735
v 0.950820 0.043543 0.635317
v 0.990603 0.058057 0.661900
v 1.030386 0.072571 0.688482
v 1.070170 0.087085 0.715065
v 0.511122 -0.114805 0.511122
v 0.543786 -0.095671 0.543786
v 0.576450 -0.076537 0.576450
v 0.609115 -0.057403 0.609115
v 0.641779 -0.038268 0.641779
v 0.674443 -0.019134 0.674443
v 0.707107 0.000000 0.707107
v 0.739771 0.019134 0.739771
v 0.772435 0.038268 0.772435
v 0.805099 0.057403 0.805099
v 0.837763 0.076537 0.837763
v 0.870427 0.095671 0.870427
v 0.903091 0.114805 0.903091
v 0.408579 -0.141419 0.611482
v 0.433078 -0.117849 0.648147
v 0.457576 -0.094279 0.684811
v 0.482075 -0.070710 0.721476
v 0.506573 -0.047140 0.758141
v 0.531072 -0.023570 0.794805
v 0.555570 0.000000 0.831470
v 0.580069 0.023570 0.868134
v 0.604567 0.047140 0.904799
v 0.629066 0.070710 0.941463
v 0.653564 0.094279 0.978128
v 0.678063 0.117849 1.014792
v 0.702561 0.141419 1.051457
v 0.287227 -0.166671 0.693426
v 0.303136 -0.138893 0.731835
v 0.319046 -0.111114 0.770244
v 0.334955 -0.083336 0.808653
v 0.350864 -0.055557 0.847062
v 0.366774 -0.027779 0.885471
v 0.382683 0.000000 0.923880
v 0.398593 0.027779 0.962288
v 0.414502 0.055557 1.000697
v 0.430412 0.083336 1.039106
v 0.446321 0.111114 1.077515
v 0.462231 0.138893 1.115924
v 0.478140 0.166671 1.154333
v 0.149848 -0.190318 0.753338
v 0.157389 -0.158598 0.791246
v 0.164929 -0.126879 0.829154
v 0.172469 -0.095159 0.867062
v 0.180010 -0.063439 0.904970
v 0.187550 -0.031720 0.942877
v 0.195090 0.000000 0.980785
v 0.202631 0.031720 1.018693
v 0.210171 0.063439 1.056601
v 0.217711 0.095159 1.094509
v 0.225252 0.126879 1.132417
v 0.232792 0.158598 1.170325
v 0.240332 0.190318 1.208232
v 0.000000 -0.212132 0.787868
v 0.000000 -0.176777 0.823223
v 0.000000 -0.141421 0.858579
v 0.000000 -0.106066 0.893934
v 0.000000 -0.070711 0.929289
v 0.000000 -0.035355 0.964645
v 0.000000 0.000000 1.000000
v 0.000000 0.035355 1.035355
v 0.000000 0.070711 1.070711
v 0.000000 0.106066 1.106066
v 0.000000 0.141421 1.141421
v 0.000000 0.176777 1.176777
v 0.000000 0.212132 1.212132
v -0.157961 -0.231903 0.794124
v -0.164149 -0.193253 0.825234
v -0.170338 -0.154602 0.856345
v -0.176526 -0.115952 0.887455
v -0.182714 -0.077301 0.918565
v -0.188902 -0.038651 0.949675
v -0.195090 0.000000 0.980785
v -0.201279 0.038651 1.011895
v -0.207467 0.077301 1.043006
v -0.213655 0.115952 1.074116
v -0.219843 0.154602 1.105226
v -0.226031 0.193253 1.136336
v -0.232220 0.231903 1.167446
v -0.318901 -0.249441 0.769896
v -0.329532 -0.207867 0.795560
v -0.340162 -0.166294 0.821224
v -0.350792 -0.124720 0.846888
v -0.361423 -0.083147 0.872552
v -0.372053 -0.041573 0.898216
v -0.382683 0.000000 0.923880
v -0.393314 0.041573 0.949544
v -0.403944 0.083147 0.975208
v -0.414575 0.124720 1.000872
v -0.425205 0.166294 1.026536
v -0.435835 0.207867 1.052200
v -0.446466 0.249441 1.077864
v -0.477002 -0.264576 0.713884
v -0.490097 -0.220480 0.733482
v -0.503191 -0.176384 0.753079
v -0.516286 -0.132288 0.772677
v -0.529381 -0.088192 0.792274
v -0.542476 -0.044096 0.811872
v -0.555570 0.000000 0.831470
v -0.568665 0.044096 0.851067
v -0.581760 0.088192 0.870665
v -0.594854 0.132288 0.890262
v -0.607949 0.176384 0.909860
v -0.621044 0.220480 0.929458
v -0.634138 0.264576 0.949055
v -0.625927 -0.277164 0.625927
v -0.639457 -0.230970 0.639457
v -0.652987 -0.184776 0.652987
v -0.666517 -0.138582 0.666517
v -0.680047 -0.092388 0.680047
v -0.693577 -0.046194 0.693577
v -0.707107 0.000000 0.707107
v -0.720637 0.046194 0.720637
v -0.734167 0.092388 0.734167
v -0.747696 0.138582 0.747696
v -0.761226 0.184776 0.761226
v -0.774756 0.230970 0.774756
v -0.788286 0.277164 0.788286
v -0.759061 -0.287082 0.507188
v -0.771129 -0.239235 0.515252
v -0.783197 -0.191388 0.523316
v -0.795265 -0.143541 0.531379
v -0.807333 -0.095694 0.539443
v -0.819401 -0.047847 0.547507
v -0.831470 0.000000 0.555570
v -0.843538 0.047847 0.563634
v -0.855606 0.095694 0.571698
v -0.867674 0.143541 0.579761
v -0.879742 0.191388 0.587825
v -0.891810 0.239235 0.595889
v -0.903878 0.287082 0.603952
v -0.869808 -0.294236 0.360286
v -0.878820 -0.245196 0.364019
v -0.887832 -0.196157 0.367752
v -0.896844 -0.147118 0.371485
v -0.905856 -0.098079 0.375218
v -0.914868 -0.049039 0.378951
v -0.923880 0.000000 0.382683
v -0.932892 0.049039 0.386416
v -0.941904 0.098079 0.390149
v -0.950916 0.147118 0.393882
v -0.959928 0.196157 0.397615
v -0.968940 0.245196 0.401348
v -0.977952 0.294236 0.405081
v -0.951945 -0.298555 0.189354
v -0.956752 -0.248796 0.190310
v -0.961559 -0.199037 0.191266
v -0.966365 -0.149278 0.192222
v -0.971172 -0.099518 0.193178
v -0.975979 -0.049759 0.194134
v -0.980785 0.000000 0.195090
v -0.985592 0.049759 0.196046
v -0.990399 0.099518 0.197003
v -0.995205 0.149278 0.197959
v -1.000012 0.199037 0.198915
v -1.004819 0.248796 0.199871
v -1.009625 0.298555 0.200827
v -1.000000 -0.300000 0.000000
v -1.000000 -0.250000 0.000000
v -1.000000 -0.200000 0.000000
v -1.000000 -0.150000 0.000000
v -1.000000 -0.100000 0.000000
v -1.000000 -0.050000 0.000000
v -1.000000 0.000000 0.000000
v -1.000000 0.050000 0.000000
v -1.000000 0.100000 0.000000
v -1.000000 0.150000 0.000000
v -1.000000 0.200000 0.000000
v -1.000000 0.250000 0.000000
v -1.000000 0.300000 0.000000
v -1.009625 -0.298555 -0.200827
v -1.004819 -0.248796 -0.199871
v -1.000012 -0.199037 -0.198915
v -0.995205 -0.149278 -0.197959
v -0.990399 -0.099518 -0.197003
v -0.985592 -0.049759 -0.196046
v -0.980785 0.000000 -0.195090
v -0.975979 0.049759 -0.194134
v -0.971172 0.099518 -0.193178
v -0.966365 0.149278 -0.192222
v -0.961559 0.199037 -0.191266
v -0.956752 0.248796 -0.190310
v -0.951945 0.298555 -0.189354
v -0.977952 -0.294236 -0.405081
v -0.968940 -0.245196 -0.401348
v -0.959928 -0.196157 -0.397615
v -0.950916 -0.147118 -0.393882
v -0.941904 -0.098079 -0.390149
v -0.932892 -0.049039 -0.386416
v -0.923880 0.000000 -0.382683
v -0.914868 0.049039 -0.378951
v -0.905856 0.098079 -0.375218
v -0.896844 0.147118 -0.371485
v -0.887832 0.196157 -0.367752
v -0.878820 0.245196 -0.364019
v -0.869808 0.294236 -0.360286
v -0.903878 -0.287082 -0.603952
v -0.891810 -0.239235 -0.595889
v -0.879742 -0.191388 -0.587825
v -0.867674 -0.143541 -0.579761
v -0.855606 -0.095694 -0.571698
v -0.843538 -0.047847 -0.563634
v -0.831470 0.000000 -0.555570
v -0.819401 0.047847 -0.547507
v -0.807333 0.095694 -0.539443
v -0.795265 0.143541 -0.531379
v -0.783197 0.191388 -0.523316
v -0.771129 0.239235 -0.515252
v -0.759061 0.287082 -0.507188
v -0.788286 -0.277164 -0.788286
v -0.774756 -0.230970 -0.774756
v -0.761226 -0.184776 -0.761226
v -0.747696 -0.138582 -0.747696
v -0.734167 -0.092388 -0.734167
v -0.720637 -0.046194 -0.720637
v -0.707107 0.000000 -0.707107
v -0.693577 0.046194 -0.693577
v -0.680047 0.092388 -0.680047
v -0.666517 0.138582 -0.666517
v -0.652987 0.184776 -0.652987
v -0.639457 0.230970 -0.639457
v -0.625927 0.277164 -0.625927
v -0.634138 -0.264576 -0.949055
v -0.621044 -0.220480 -0.929458
v -0.607949 -0.176384 -0.909860
v -0.594854 -0.132288 -0.890262
v -0.581760 -0.088192 -0.870665
v -0.568665 -0.044096 -0.851067
v -0.555570 0.000000 -0.831470
v -0.542476 0.044096 -0.811872
v -0.529381 0.088192 -0.792274
v -0.516286 0.132288 -0.772677
v -0.503191 0.176384 -0.753079
v -0.490097 0.220480 -0.733482
v -0.477002 0.264576 -0.713884
v -0.446466 -0.249441 -1.077864
v -0.435835 -0.207867 -1.052200
v -0.425205 -0.166294 -1.026536
v -0.414575 -0.124720 -1.000872
v -0.403944 -0.083147 -0.975208
v -0.393314 -0.041573 -0.949544
v -0.382683 0.000000 -0.923880
v -0.372053 0.041573 -0.898216
v -0.361423 0.083147 -0.872552
v -0.350792 0.124720 -0.846888
v -0.340162 0.166294 -0.821224
v -0.329532 0.207867 -0.795560
v -0.318901 0.249441 -0.769896
v -0.232220 -0.231903 -1.167446
v -0.226031 -0.193253 -1.136336
v -0.219843 -0.154602 -1.105226
v -0.213655 -0.115952 -1.074116
v -0.207467 -0.077301 -1.043006
v -0.201279 -0.038651 -1.011895
v -0.195090 0.000000 -0.980785
v -0.188902 0.038651 -0.949675
v -0.182714 0.077301 -0.918565
v -0.176526 0.115952 -0.887455
v -0.170338 0.154602 -0.856345
v -0.164149 0.193253 -0.825234
v -0.157961 0.231903 -0.794124
v -0.000000 -0.212132 -1.212132
v -0.000000 -0.176777 -1.176777
v -0.000000 -0.141421 -1.141421
v -0.000000 -0.106066 -1.106066
v -0.000000 -0.070711 -1.070711
v -0.000000 -0.035355 -1.035355
v -0.000000 0.000000 -1.000000
v -0.000000 0.035355 -0.964645
v -0.000000 0.070711 -0.929289
v -0.000000 0.106066 -0.893934
v -0.000000 0.141421 -0.858579
v -0.000000 0.176777 -0.823223
v -0.000000 0.212132 -0.787868
v 0.240332 -0.190318 -1.208232
v 0.232792 -0.158598 -1.170325
v 0.225252 -0.126879 -1.132417
v 0.217711 -0.095159 -1.094509
v 0.210171 -0.063439 -1.056601
v 0.202631 -0.031720 -1.018693
v 0.195090 0.000000 -0.980785
v 0.187550 0.031720 -0.942877
v 0.180010 0.063439 -0.904970
v 0.172469 0.095159 -0.867062
v 0.164929 0.126879 -0.829154
v 0.157389 0.158598 -0.791246
v 0.149848 0.190318 -0.753338
v 0.478140 -0.166671 -1.154333
v 0.462231 -0.138893 -1.115924
v 0.446321 -0.111114 -1.077515
v 0.430412 -0.083336 -1.039106
v 0.414502 -0.055557 -1.000697
v 0.398593 -0.027779 -0.962288
v 0.382683 0.000000 -0.923880
v 0.366774 0.027779 -0.885471
v 0.350864 0.055557 -0.847062
v 0.334955 0.083336 -0.808653
v 0.319046 0.111114 -0.770244
v 0.303136 0.138893 -0.731835
v 0.287227 0.166671 -0.693426
v 0.702561 -0.141419 -1.051457
v 0.678063 -0.117849 -1.014792
v 0.653564 -0.094279 -0.978128
v 0.629066 -0.070710 -0.941463
v 0.604567 -0.047140 -0.904799
v 0.580069 -0.023570 -0.868134
v 0.555570 0.000000 -0.831470
v 0.531072 0.023570 -0.794805
v 0.506573 0.047140 -0.758141
v 0.482075 0.070710 -0.721476
v 0.457576 0.094279 -0.684811
v 0.433078 0.117849 -0.648147
v 0.408579 0.141419 -0.611482
v 0.903091 -0.114805 -0.903091
v 0.870427 -0.095671 -0.870427
v 0.837763 -0.076537 -0.837763
v 0.805099 -0.057403 -0.805099
v 0.772435 -0.038268 -0.772435
v 0.739771 -0.019134 -0.739771
v 0.707107 0.000000 -0.707107
v 0.674443 0.019134 -0.674443
v 0.641779 0.038268 -0.641779
v 0.609115 0.057403 -0.609115
v 0.576450 0.076537 -0.576450
v 0.543786 0.095671 -0.543786
v 0.511122 0.114805 -0.511122
v 1.070170 -0.087085 -0.715065
v 1.030386 -0.072571 -0.688482
v 0.990603 -0.058057 -0.661900
v 0.950820 -0.043543 -0.635317
v 0.911036 -0.029028 -0.608735
v 0.871253 -0.014514 -0.582153
v 0.831470 0.000000 -0.555570
v 0.791686 0.014514 -0.528988
v 0.751903 0.029028 -0.502405
v 0.712120 0.043543 -0.475823
v 0.672336 0.058057 -0.449241
v 0.632553 0.072571 -0.422658
v 0.592770 0.087085 -0.396076
v 1.195718 -0.058527 -0.495283
v 1.150411 -0.048773 -0.476516
v 1.105105 -0.039018 -0.457749
v 1.059799 -0.029264 -0.438983
v 1.014492 -0.019509 -0.420216
v 0.969186 -0.009755 -0.401450
v 0.923880 0.000000 -0.382683
v 0.878573 0.009755 -0.363917
v 0.833267 0.019509 -0.345150
v 0.787960 0.029264 -0.326384
v 0.742654 0.039018 -0.307617
v 0.697348 0.048773 -0.288851
v 0.652041 0.058527 -0.270084
v 1.273604 -0.029405 -0.253336
v 1.224801 -0.024504 -0.243628
v 1.175998 -0.019603 -0.233921
v 1.127195 -0.014703 -0.224213
v 1.078392 -0.009802 -0.214505
v 1.029588 -0.004901 -0.204798
v 0.980785 0.000000 -0.195090
v 0.931982 0.004901 -0.185383
v 0.883179 0.009802 -0.175675
v 0.834376 0.014703 -0.165968
v 0.785573 0.019603 -0.156260
v 0.736770 0.024504 -0.146553
v 0.687967 0.029405 -0.136845
v 1.300000 -0.000000 -0.000000
v 1.250000 -0.000000 -0.000000
v 1.200000 -0.000000 -0.000000
v 1.150000 -0.000000 -0.000000
v 1.100000 -0.000000 -0.000000
v 1.050000 -0.000000 -0.000000
v 1.000000 0.000000 -0.000000
v 0.950000 0.000000 -0.000000
v 0.900000 0.000000 -0.000000
v 0.850000 0.000000 -0.000000
v 0.800000 0.000000 -0.000000
v 0.750000 0.000000 -0.000000
v 0.700000 0.000000 -0.000000
f 1 14 2
f 14 15 2
f 2 15 3
f 15 16 3
f 3 16 4
f 16 17 4
f 4 17 5
f 17 18 5
f 5 18 6
f 18 19 6
f 6 19 7
f 19 20 7
f 7 20 8
f 20 21 8
f 8 21 9
f 21 22 9
f 9 22 10
f 22 23 10
f 10 23 11
f 23 24 11
f 11 24 12
f 24 25 12
f 12 25 13
f 25 26 13
f 14 27 15
f 27 28 15
f 15 28 16
f 28 29 16
f 16 29 17
f 29 30 17
f 17 30 18
f 30 31 18
f 18 31 19
f 31 32 19
f 19 32 20
f 32 33 20
f 20 33 21
f 33 34 21
f 21 34 22
f 34 35 22
f 22 35 23
f 35 36 23
f 23 36 24
f 36 37 24
f 24 37 25
f 37 38 25
f 25 38 26
f 38 39 26
f 27 40 28
f 40 41 28
f 28 41 29
f 41 42 29
f 29 42 30
f 42 43 30
f 30 43 31
f 43 44 31
f 31 44 32
f 44 45 32
f 32 45 33
f 45 46 33
f 33 46 34
f 46 47 34
f 34 47 35
f 47 48 35
f 35 48 36
f 48 49 36
f 36 49 37
f 49 50 37
f 37 50 38
f 50 51 38
f 38 51 39
f 51 52 39
f 40 53 41
f 53 54 41
f 41 54 42
f 54 55 42
f 42 55 43
f 55 56 43
f 43 56 44
f 56 57 44
f 44 57 45
f 57 58 45
f 45 58 46
f 58 59 46
f 46 59 47
f 59 60 47
f 47 60 48
f 60 61 48
f 48 61 49
f 61 62 49
f 49 62 50
f 62 63 50
f 50 63 51
f 63 64 51
f 51 64 52
f 64 65 52
f 53 66 54
f 66 67 54
f 54 67 55
f 67 68 55
f 55 68 56
f 68 69 56
f 56 69 57
f 69 70 57
f 57 70 58
f 70 71 58
f 58 71 59
f 71 72 59
f 59 72 60
f 72 73 60
f 60 73 61
f 73 74 61
f 61 74 62
f 74 75 62
f 62 75 63
f 75 76 63
f 63 76 64
f 76 77 64
f 64 77 65
f 77 78 65
f 66 79 67
f 79 80 67
f 67 80 68
f 80 81 68
f 68 81 69
f 81 82 69
f 69 82 70
f 82 83 70
f 70 83 71
f 83 84 71
f 71 84 72
f 84 85 72
f 72 85 73
f 85 86 73
f 73 86 74
f 86 87 74
f 74 87 75
f 87 88 75
f 75 88 76
f 88 89 76
f 76 89 77
f 89 90 77
f 77 90 78
f 90 91 78
f 79 92 80
f 92 93 80
f 80 93 81
f 93 94 81
f 81 94 82
f 94 95 82
f 82 95 83
f 95 96 83
f 83 96 84
f 96 97 84
f 84 97 85
f 97 98 85
f 85 98 86
f 98 99 86
f 86 99 87
f 99 100 87
f 87 100 88
f 100 101 88
f 88 101 89
f 101 102 89
f 89 102 90
f 102 103 90
f 90 103 91
f 103 104 91
f 92 105 93
f 105 106 93
f 93 106 94
f 106 107 94
f 94 107 95
f 107 108 95
f 95 108 96
f 108 109 96
f 96 109 97
f 109 110 97
f 97 110 98
f 110 111 98
f 98 111 99
f 111 112 99
f 99 112 100
f 112 113 100
f 100 113 101
f 113 114 101
f 101 114 102
f 114 115 102
f 102 115 103
f 115 116 103
f 103 116 104
f 116 117 104
f 105 118 106
f 118 119 106
f 106 119 107
f 119 120 107
f 107 120 108
f 120 121 108
f 108 121 109
f 121 122 109
f 109 122 110
f 122 123 110
f 110 123 111
f 123 124 111
f 111 124 112
f 124 125 112
f 112 125 113
f 125 126 113
f 113 126 114
f 126 127 114
f 114 127 115
f 127 128 115
f 115 128 116
f 128 129 116
f 116 129 117
f 129 130 117
f 118 131 119
f 131 132 119
f 119 132 120
f 132 133 120
f 120 133 121
f 133 134 121
f 121 134 122
f 134 135 122
f 122 135 123
f 135 136 123
f 123 136 124
f 136 137 124
f 124 137 125
f 137 138 125
f 125 138 126
f 138 139 126
f 126 139 127
f 139 140 127
f 127 140 128
f 140 141 128
f 128 141 129
f 141 142 129
f 129 142 130
f 142 143 130
f 131 144 132
f 144 145 132
f 132 145 133
f 145 146 133
f 133 146 134
f 146 147 134
f 134 147 135
f 147 148 135
f 135 148 136
f 148 149 136
f 136 149 137
f 149 150 137
f 137 150 138
f 150 151 138
f 138 151 139
f 151 152 139
f 139 152 140
f 152 153 140
f 140 153 141
f 153 154 141
f 141 154 142
f 154 155 142
f 142 155 143
f 155 156 143
f 144 157 145
f 157 158 145
f 145 158 146
f 158 159 146
f 146 159 147
f 159 160 147
f 147 160 148
f 160 161 148
f 148 161 149
f 161 162 149
f 149 162 150
f 162 163 150
f 150 163 151
f 163 164 151
f 151 164 152
f 164 165 152
f 152 165 153
f 165 166 153
f 153 166 154
f 166 167 154
f 154 167 155
f 167 168 155
f 155 168 156
f 168 169 156
f 157 170 158
f 170 171 158
f 158 171 159
f 171 172 159
f 159 172 160
f 172 173 160
f 160 173 161
f 173 174 161
f 161 174 162
f 174 175 162
f 162 175 163
f 175 176 163
f 163 176 164
f 176 177 164
f 164 177 165
f 177 178 165
f 165 178 166
f 178 179 166
f 166 179 167
f 179 180 167
f 167 180 168
f 180 181 168
f 168 181 169
f 181 182 169
f 170 183 171
f 183 184 171
f 171 184 172
f 184 185 172
f 172 185 173
f 185 186 173
f 173 186 174
f 186 187 174
f 174 187 175
f 187 188 175
f 175 188 176
f 188 189 176
f 176 189 177
f 189 190 177
f 177 190 178
f 190 191 178
f 178 191 179
f 191 192 179
f 179 192 180
f 192 193 180
f 180 193 181
f 193 194 181
f 181 194 182
f 194 195 182
f 183 196 184
f 196 197 184
f 184 197 185
f 197 198 185
f 185 198 186
f 198 199 186
f 186 199 187
f 199 200 187
f 187 200 188
f 200 201 188
f 188 201 189
f 201 202 189
f 189 202 190
f 202 203 190
f 190 203 191
f 203 204 191
f 191 204 192
f 204 205 192
f 192 205 193
f 205 206 193
f 193 206 194
f 206 207 194
f 194 207 195
f 207 208 195
f 196 209 197
f 209 210 197
f 197 210 198
f 210 211 198
f 198 211 199
f 211 212 199
f 199 212 200
f 212 213 200
f 200 213 201
f 213 214 201
f 201 214 202
f 214 215 202
f 202 215 203
f 215 216 203
f 203 216 204
f 216 217 204
f 204 217 205
f 217 218 205
f 205 218 206
f 218 219 206
f 206 219 207
f 219 220 207
f 207 220 208
f 220 221 208
f 209 222 210
f 222 223 210
f 210 223 211
f 223 224 211
f 211 224 212
f 224 225 212
f 212 225 213
f 225 226 213
f 213 226 214
f 226 227 214
f 214 227 215
f 227 228 215
f 215 228 216
f 228 229 216
f 216 229 217
f 229 230 217
f 217 230 218
f 230 231 218
f 218 231 219
f 231 232 219
f 219 232 220
f 232 233 220
f 220 233 221
f 233 234 221
f 222 235 223
f 235 236 223
f 223 236 224
f 236 237 224
f 224 237 225
f 237 238 225
f 225 238 226
f 238 239 226
f 226 239 227
f 239 240 227
f 227 240 228
f 240 241 228
f 228 241 229
f 241 242 229
f 229 242 230
f 242 243 230
f 230 243 231
f 243 244 231
f 231 244 232
f 244 245 232
f 232 245 233
f 245 246 233
f 233 246 234
f 246 247 234
f 235 248 236
f 248 249 236
f 236 249 237
f 249 250 237
f 237 250 238
f 250 251 238
f 238 251 239
f 251 252 239
f 239 252 240
f 252 253 240
f 240 253 241
f 253 254 241
f 241 254 242
f 254 255 242
f 242 255 243
f 255 256 243
f 243 256 244
f 256 257 244
f 244 257 245
f 257 258 245
f 245 258 246
f 258 259 246
f 246 259 247
f 259 260 247
f 248 261 249
f 261 262 249
f 249 262 250
f 262 263 250
f 250 263 251
f 263 264 251
f 251 264 252
f 264 265 252
f 252 265 253
f 265 266 253
f 253 266 254
f 266 267 254
f 254 267 255
f 267 268 255
f 255 268 256
f 268 269 256
f 256 269 257
f 269 270 257
f 257 270 258
f 270 271 258
f 258 271 259
f 271 272 259
f 259 272 260
f 272 273 260
f 261 274 262
f 274 275 262
f 262 275 263
f 275 276 263
f 263 276 264
f 276 277 264
f 264 277 265
f 277 278 265
f 265 278 266
f 278 279 266
f 266 279 267
f 279 280 267
f 267 280 268
f 280 281 268
f 268 281 269
f 281 282 269
f 269 282 270
f 282 283 270
f 270 283 271
f 283 284 271
f 271 284 272
f 284 285 272
f 272 285 273
f 285 286 273
f 274 287 275
f 287 288 275
f 275 288 276
f 288 289 276
f 276 289 277
f 289 290 277
f 277 290 278
f 290 291 278
f 278 291 279
f 291 292 279
f 279 292 280
f 292 293 280
f 280 293 281
f 293 294 281
f 281 294 282
f 294 295 282
f 282 295 283
f 295 296 283
f 283 296 284
f 296 297 284
f 284 297 285
f 297 298 285
f 285 298 286
f 298 299 286
f 287 300 288
f 300 301 288
f 288 301 289
f 301 302 289
f 289 302 290
f 302 303 290
f 290 303 291
f 303 304 291
f 291 304 292
f 304 305 292
f 292 305 293
f 305 306 293
f 293 306 294
f 306 307 294
f 294 307 295
f 307 308 295
f 295 308 296
f 308 309 296
f 296 309 297
f 309 310 297
f 297 310 298
f 310 311 298
f 298 311 299
f 311 312 299
f 300 313 301
f 313 314 301
f 301 314 302
f 314 315 302
f 302 315 303
f 315 316 303
f 303 316 304
f 316 317 304
f 304 317 305
f 317 318 305
f 305 318 306
f 318 319 306
f 306 319 307
f 319 320 307
f 307 320 308
f 320 321 308
f 308 321 309
f 321 322 309
f 309 322 310
f 322 323 310
f 310 323 311
f 323 324 311
f 311 324 312
f 324 325 312
f 313 326 314
f 326 327 314
f 314 327 315
f 327 328 315
f 315 328 316
f 328 329 316
f 316 329 317
f 329 330 317
f 317 330 318
f 330 331 318
f 318 331 319
f 331 332 319
f 319 332 320
f 332 333 320
f 320 333 321
f 333 334 321
f 321 334 322
f 334 335 322
f 322 335 323
f 335 336 323
f 323 336 324
f 336 337 324
f 324 337 325
f 337 338 325
f 326 339 327
f 339 340 327
f 327 340 328
f 340 341 328
f 328 341 329
f 341 342 329
f 329 342 330
f 342 343 330
f 330 343 331
f 343 344 331
f 331 344 332
f 344 345 332
f 332 345 333
f 345 346 333
f 333 346 334
f 346 347 334
f 334 347 335
f 347 348 335
f 335 348 336
f 348 349 336
f 336 349 337
f 349 350 337
f 337 350 338
f 350 351 338
f 339 352 340
f 352 353 340
f 340 353 341
f 353 354 341
f 341 354 342
f 354 355 342
f 342 355 343
f 355 356 343
f 343 356 344
f 356 357 344
f 344 357 345
f 357 358 345
f 345 358 346
f 358 359 346
f 346 359 347
f 359 360 347
f 347 360 348
f 360 361 348
f 348 361 349
f 361 362 349
f 349 362 350
f 362 363 350
f 350 363 351
f 363 364 351
f 352 365 353
f 365 366 353
f 353 366 354
f 366 367 354
f 354 367 355
f 367 368 355
f 355 368 356
f 368 369 356
f 356 369 357
f 369 370 357
f 357 370 358
f 370 371 358
f 358 371 359
f 371 372 359
f 359 372 360
f 372 373 360
f 360 373 361
f 373 374 361
f 361 374 362
f 374 375 362
f 362 375 363
f 375 376 363
f 363 376 364
f 376 377 364
f 365 378 366
f 378 379 366
f 366 379 367
f 379 380 367
f 367 380 368
f 380 381 368
f 368 381 369
f 381 382 369
f 369 382 370
f 382 383 370
f 370 383 371
f 383 384 371
f 371 384 372
f 384 385 372
f 372 385 373
f 385 386 373
f 373 386 374
f 386 387 374
f 374 387 375
f 387 388 375
f 375 388 376
f 388 389 376
f 376 389 377
f 389 390 377
f 378 391 379
f 391 392 379
f 379 392 380
f 392 393 380
f 380 393 381
f 393 394 381
f 381 394 382
f 394 395 382
f 382 395 383
f 395 396 383
f 383 396 384
f 396 397 384
f 384 397 385
f 397 398 385
f 385 398 386
f 398 399 386
f 386 399 387
f 399 400 387
f 387 400 388
f 400 401 388
f 388 401 389
f 401 402 389
f 389 402 390
f 402 403 390
f 391 404 392
f 404 405 392
f 392 405 393
f 405 406 393
f 393 406 394
f 406 407 394
f 394 407 395
f 407 408 395
f 395 408 396
f 408 409 396
f 396 409 397
f 409 410 397
f 397 410 398
f 410 411 398
f 398 411 399
f 411 412 399
f 399 412 400
f 412 413 400
f 400 413 401
f 413 414 401
f 401 414 402
f 414 415 402
f 402 415 403
f 415 416 403
f 404 417 405
f 417 418 405
f 405 418 406
f 418 419 406
f 406 419 407
f 419 420 407
f 407 420 408
f 420 421 408
f 408 421 409
f 421 422 409
f 409 422 410
f 422 423 410
f 410 423 411
f 423 424 411
f 411 424 412
f 424 425 412
f 412 425 413
f 425 426 413
f 413 426 414
f 426 427 414
f 414 427 415
f 427 428 415
f 415 428 416
f 428 429 416
