{"asset":{"version":"2.0","generator":"UltraIa geometry (procedural)"},"scene":0,"scenes":[{"nodes":[0]}],"nodes":[{"mesh":0,"name":"ultraia_supershape"}],"meshes":[{"name":"ultraia_supershape","primitives":[{"attributes":{"POSITION":1},"indices":0,"mode":4}]}],"buffers":[{"byteLength":19020,"uri":"data:application/octet-stream;base64,"}],"bufferViews":[{"buffer":0,"byteOffset":0,"byteLength":12288,"target":34963},{"buffer":0,"byteOffset":12288,"byteLength":6732,"target":34962}],"accessors":[{"bufferView":0,"componentType":5125,"count":3072,"type":"SCALAR"},{"bufferView":1,"componentType":5126,"count":561,"type":"VEC3","min":[-1,-0.6140443764248616,-0.8586957328167836],"max":[1,0.6140443764248615,0.8586957328167838]}]}